PathFileType	4	(X/Y/Z)	/Users/niels/Desktop/University/Third Semester/Perception and Action/Exam/Gymnastics Motion Tracking/Code for Gym Tracking/Analyzed Data/Webcam_Backflip/id3_4_trajectory_Sports2D/id3_4_trajectory_Sports2D_px_person00.trc
DataRate	CameraRate	NumFrames	NumMarkers	Units	OrigDataRate	OrigDataStartFrame	OrigNumFrames
29.810126582278482	29.810126582278482	11	22	m	29.810126582278482	0	158
Frame#	Time	Hip			RHip			RKnee			RAnkle			RBigToe			RSmallToe			RHeel			LHip			LKnee			LAnkle			LBigToe			LSmallToe			LHeel			Neck			Head			Nose			RShoulder			RElbow			RWrist			LShoulder			LElbow			LWrist		
		X1	Y1	Z1	X2	Y2	Z2	X3	Y3	Z3	X4	Y4	Z4	X5	Y5	Z5	X6	Y6	Z6	X7	Y7	Z7	X8	Y8	Z8	X9	Y9	Z9	X10	Y10	Z10	X11	Y11	Z11	X12	Y12	Z12	X13	Y13	Z13	X14	Y14	Z14	X15	Y15	Z15	X16	Y16	Z16	X17	Y17	Z17	X18	Y18	Z18	X19	Y19	Z19	X20	Y20	Z20	X21	Y21	Z21	X22	Y22	Z22
0	0.0	0.9972952677859847	-0.5642096190044669	0.0	1.0035532836828243	-0.561083958810824	0.0	1.0238813499103303	-0.6752890637345361	0.0	0.9847760777611795	-0.7879348826820736	0.0	1.0176113047139095	-0.8098572693697804	0.0	1.0082147422838343	-0.8129834886468461	0.0	0.9707049514936885	-0.8035909052213646	0.0	0.9910355999794097	-0.5610825306746425	0.0	0.9957276418386289	-0.6690337232380943	0.0	0.9769555614793503	-0.7832483195312683	0.0	1.0097707229718857	-0.8067237428264993	0.0	0.9956914900449456	-0.8036047195892998	0.0	0.9644474383751371	-0.7957777449569332	0.0	0.9910359859591003	-0.40461597996457793	0.0	0.9941513798630723	-0.3263695354831561	0.0	1.0145060982973186	-0.37018469747052085	0.0	0.9879083313753669	-0.42651239185050804	0.0	1.0270413899597217	-0.49068719481064177	0.0	1.0959073039234624	-0.5282672925608677	0.0	0.9816714202429393	-0.42497005648132624	0.0	1.0192069327005342	-0.49224520001091177	0.0	1.0802357896756942	-0.5266992484204909	0.0
1	0.03354564755838641	0.9969052965894476	-0.5646276628378829	0.0	1.0034536565025964	-0.5622181441906882	0.0	1.021445575146078	-0.6742348789364684	0.0	0.9841184721664923	-0.7883691065334527	0.0	1.017948256517277	-0.8097139937788809	0.0	1.008585146410543	-0.8129993141662533	0.0	0.9705000872218948	-0.8040160900311074	0.0	0.9903492682629668	-0.5621675747798712	0.0	0.9945410999116013	-0.6695430339475494	0.0	0.9758084907377573	-0.7835965417967955	0.0	1.0101215170047773	-0.8064044506007388	0.0	0.9984366166074026	-0.8033113890618525	0.0	0.9641646129879018	-0.7962609171874918	0.0	0.9923700051053769	-0.4045443289204009	0.0	0.9961040997442069	-0.32838389361291787	0.0	1.0154809749286065	-0.37038123146411883	0.0	0.9880855672158533	-0.42565043768381705	0.0	1.0182292409267921	-0.4887794852317828	0.0	1.0789387734819569	-0.5280629583083347	0.0	0.9843007033114103	-0.42508690532171295	0.0	1.0099805150768815	-0.49233464910612035	0.0	1.0597658845667428	-0.5320559002883852	0.0
2	0.06709129511677282	0.9968367381636826	-0.5651661351488159	0.0	1.0034530392849206	-0.5633925135020483	0.0	1.0189230850102577	-0.6734115907159014	0.0	0.9834822420837882	-0.7888255549734315	0.0	1.0181668219857405	-0.8096036178957867	0.0	1.0085782662139742	-0.8129064350373124	0.0	0.9704208708617578	-0.804270959750907	0.0	0.9902212002912247	-0.5633722304837049	0.0	0.9934937261155558	-0.6701431577216941	0.0	0.9749684252581565	-0.7839429818496061	0.0	1.0107398230789655	-0.8060052998883805	0.0	1.001499429444605	-0.8028692726598029	0.0	0.9639841630479994	-0.7967168100483504	0.0	0.9938089683747466	-0.40419594788759944	0.0	0.9982126981019473	-0.3303103079977457	0.0	1.0168402637336371	-0.37062146065504237	0.0	0.9883746711727173	-0.42460489374895805	0.0	1.0093138655384306	-0.48638361858712836	0.0	1.0602934854969157	-0.5268725026940444	0.0	0.9874444945485603	-0.42499765247087834	0.0	1.002254184104385	-0.49185902303817247	0.0	1.0418066458817041	-0.5362469166143753	0.0
3	0.10063694267515924	0.9973520987731306	-0.5659111946341451	0.0	1.00364536815053	-0.5645942538605773	0.0	1.0163694164087576	-0.6729028436032392	0.0	0.9828836560087553	-0.7892201169663494	0.0	1.0182246649496978	-0.8094310370753662	0.0	1.0081178553353953	-0.8126039852627386	0.0	0.9705339404090337	-0.8042436181054223	0.0	0.9910600909031421	-0.5646935916159606	0.0	0.9928025428221754	-0.670788004623957	0.0	0.9747191070020798	-0.7841698118434981	0.0	1.011880462471487	-0.8054341076555016	0.0	1.0048619387733102	-0.8021714188018926	0.0	0.9640782232004889	-0.7970206354381146	0.0	0.9953914681343397	-0.4035126917981259	0.0	1.0006726157054717	-0.33197906664194615	0.0	1.0188646898603106	-0.37089042081091994	0.0	0.9888998490216291	-0.42332023829603055	0.0	1.0002484115844865	-0.48315873204426163	0.0	1.0389272347388638	-0.5238297728825959	0.0	0.9911137753868501	-0.42454773969591686	0.0	0.9963525323239901	-0.49037373875010326	0.0	1.0261174717503747	-0.5383483215722078	0.0
4	0.13418259023354565	0.9985719899435779	-0.5668671277719931	0.0	1.0041123734756425	-0.5657668800426042	0.0	1.0139520658851953	-0.6726449781069411	0.0	0.9823130624324664	-0.7894219008680778	0.0	1.018083111722923	-0.809051699999567	0.0	1.0073562801798428	-0.8120631432934684	0.0	0.9707408271739606	-0.8039543757245072	0.0	0.9930082583339189	-0.5659897021168108	0.0	0.9927307181512401	-0.6713314369424894	0.0	0.9751601779565001	-0.7840932244475526	0.0	1.0135852774640342	-0.8046501599113066	0.0	1.0081118796304525	-0.8012418105068405	0.0	0.9645399448403656	-0.7970112829751056	0.0	0.9970474866006448	-0.4026646926494316	0.0	1.0036707176850919	-0.3331406105215116	0.0	1.0215849553893939	-0.37115170161311856	0.0	0.9897329131110625	-0.4218964560752188	0.0	0.9911749982923524	-0.478987226850737	0.0	1.0149348678955694	-0.5183728937577508	0.0	0.9947412287940162	-0.4237159151689024	0.0	0.9913191368001403	-0.4876122446497024	0.0	1.0101692236371422	-0.5374249031902952	0.0
5	0.16772823779193205	1.0004131345153173	-0.5678588684786384	0.0	1.004891115473414	-0.5667565715859056	0.0	1.0118526752484935	-0.6725021939110666	0.0	0.9817385307644036	-0.7893581579995023	0.0	1.01773293985347	-0.8084133152621332	0.0	1.006492711598959	-0.8113495086212187	0.0	0.9707647639785408	-0.8035162933719335	0.0	0.9959409592776675	-0.5670009782832433	0.0	0.9934516830956361	-0.6716325477507658	0.0	0.9761489903963155	-0.7836026953805861	0.0	1.0156187634124083	-0.8036990871264744	0.0	1.0107618369590075	-0.8002163942526365	0.0	0.965244621116143	-0.796633055780573	0.0	0.9986180850027501	-0.4018465883890234	0.0	1.0073523581673887	-0.33360102202117575	0.0	1.0247994876064421	-0.3714024717180977	0.0	0.9908293290732338	-0.4204767294911642	0.0	0.9824978285869285	-0.4739327908514083	0.0	0.9895778025967374	-0.5104288550998461	0.0	0.9974994424365858	-0.4225562801722462	0.0	0.9858306961581118	-0.48339895182918446	0.0	0.9917510841805081	-0.5321504557725133	0.0
6	0.20127388535031848	1.0026032108763694	-0.5685221285683898	0.0	1.0059542656665372	-0.5672679651057476	0.0	1.010222471450291	-0.6723148138264625	0.0	0.9811671303897139	-0.7890042279251285	0.0	1.017322247372125	-0.8075769199404593	0.0	1.0057500403547155	-0.8105611702021066	0.0	0.9703495229712522	-0.8029943262280703	0.0	0.9994836731438858	-0.5674132058777588	0.0	0.9949072749858858	-0.6716061342009613	0.0	0.977428050187564	-0.7827375853973765	0.0	1.0175981345475045	-0.8026899678620362	0.0	1.0125175183944501	-0.799263533266473	0.0	0.9659227901133564	-0.7959706736655915	0.0	0.9999294076794745	-0.401120007412137	0.0	1.0117732093085658	-0.3333333198586458	0.0	1.0282517963887425	-0.3716513571516994	0.0	0.9920521501382042	-0.41912265194475923	0.0	0.9747665480049285	-0.4682558611450198	0.0	0.9648255638389884	-0.500593195744991	0.0	0.9986935047402646	-0.4210747557436372	0.0	0.9792440639790315	-0.4777174568505624	0.0	0.9709913542454969	-0.5217161775841133	0.0
7	0.2348195329087049	1.0047790511742318	-0.5684702698273832	0.0	1.007237512725613	-0.566988404704838	0.0	1.0091878822734301	-0.6719177920133081	0.0	0.9806770957085613	-0.7883355716097555	0.0	1.017131576864637	-0.8066257483662486	0.0	1.0054103361731308	-0.8097354895241016	0.0	0.9694598762473835	-0.8023436322484586	0.0	1.0030307347286724	-0.5669838442137529	0.0	0.996777451039388	-0.6712048214045799	0.0	0.9787171097499034	-0.7816406286973916	0.0	1.0191735454397262	-0.8017359541848319	0.0	1.013318762705347	-0.7985097599710778	0.0	0.9662874791748931	-0.7951632429688453	0.0	1.0008709667435693	-0.4004299401400718	0.0	1.0168427339637314	-0.3324651058257342	0.0	1.0317211437869513	-0.37187059178988785	0.0	0.9932347750418062	-0.41780645433359126	0.0	0.9683415257257745	-0.46244819135653387	0.0	0.9426299453992077	-0.4901240156117043	0.0	0.9980459257362295	-0.41922061328313115	0.0	0.9719705250529895	-0.4710560024587288	0.0	0.9502817313749657	-0.5075934732305128	0.0
8	0.2683651804670913	1.0066313922809127	-0.5675297176252568	0.0	1.0086468250664564	-0.5658167818230558	0.0	1.008817241320363	-0.6711913366457409	0.0	0.9803421077775948	-0.7873599859705754	0.0	1.017377144152824	-0.8056086700447883	0.0	1.0057060291595403	-0.8088412204766254	0.0	0.9682857262434719	-0.8014972712721206	0.0	1.0059681028494205	-0.5656747065384209	0.0	0.9986172507372391	-0.6704041164942519	0.0	0.9797468362994947	-0.7804519309619403	0.0	1.020205669339933	-0.8008724920357381	0.0	1.0133436020814461	-0.7979475605470893	0.0	0.966149616363882	-0.7943140558265422	0.0	1.001432204429244	-0.3996959977647472	0.0	1.022279134103189	-0.33123147550769366	0.0	1.0349953164636134	-0.37201188581638617	0.0	0.9942258259246467	-0.41648605931099386	0.0	0.9631945403044713	-0.45710030731117457	0.0	0.9243568836861819	-0.4805548660327262	0.0	0.9958368663909511	-0.41698573783875864	0.0	0.9650312937256825	-0.46443793809932155	0.0	0.9325073087534356	-0.49332036709870075	0.0
9	0.3019108280254777	1.0080177872948743	-0.565855811085364	0.0	1.0100317896716304	-0.5639706476288296	0.0	1.0090099358657953	-0.6701131040381072	0.0	0.9801586137286042	-0.7861636549145571	0.0	1.0180534559921721	-0.8045830155478418	0.0	1.0066029249522144	-0.807877807544487	0.0	0.9671279401245181	-0.8004674184591699	0.0	1.0080273647949494	-0.5636992103031772	0.0	1.0001031956281625	-0.669220576315325	0.0	0.9803751111140213	-0.7792389963985181	0.0	1.0208183962703392	-0.8000315034434269	0.0	1.0129798377339931	-0.7974205059086932	0.0	0.965572942518786	-0.79345174839395	0.0	1.0016975695612043	-0.3988668571313109	0.0	1.0275928492042339	-0.3299230225527526	0.0	1.0378857622269282	-0.3720567462735862	0.0	0.9949172807148657	-0.4151380577184692	0.0	0.9591222461790799	-0.45270853561917335	0.0	0.9106847805495056	-0.4731717768042269	0.0	0.9928635599127988	-0.4145042648671192	0.0	0.9593930661489705	-0.45893362752903477	0.0	0.9195570729191583	-0.4821742521697087	0.0
10	0.3354564755838641	1.0089570280213307	-0.5638622460394995	0.0	1.011208080226938	-0.5619020184909148	0.0	1.0094455569729524	-0.6687630261812934	0.0	0.9800743859480554	-0.7848551499002245	0.0	1.0188674520391297	-0.8036609190401234	0.0	1.0076595755468112	-0.8069358825536639	0.0	0.966281754412949	-0.7993405832948631	0.0	1.009335455794377	-0.5614760501657727	0.0	1.0011559468375564	-0.6677535066556046	0.0	0.9806714529329468	-0.7780085504795401	0.0	1.021110912062722	-0.7991359388294298	0.0	1.0125313009194856	-0.796794622343914	0.0	0.964898593998164	-0.7925934320734103	0.0	1.001801936072302	-0.39795250798227766	0.0	1.032172198620743	-0.3287645210712154	0.0	1.0402679452837662	-0.3720047072008728	0.0	0.9952784985245614	-0.413759429491627	0.0	0.9560927867086731	-0.44963390526389396	0.0	0.9018441245748299	-0.46881015092126876	0.0	0.9901788210002339	-0.41211522495675196	0.0	0.9556035136306192	-0.4552171581316479	0.0	0.9120075402542758	-0.475725230267891	0.0
